<svg width="11" height="20" viewBox="0 0 11 20" fill="none" xmlns="http://www.w3.org/2000/svg">
<path d="M10.0828 19.0034L1.38736 9.99536L10.1023 0.948194C10.2066 0.830952 10.2554 0.69417 10.2489 0.537847C10.2424 0.381525 10.187 0.251255 10.0828 0.147041C9.97859 0.0558521 9.8418 0.00700131 9.67246 0.000488508C9.50311 -0.00602429 9.36632 0.0428265 9.26211 0.147041L0.156323 9.60455C0.0521075 9.70877 0 9.83904 0 9.99536C0 10.1517 0.0521075 10.295 0.156323 10.4252L9.26211 19.8241C9.32724 19.8762 9.39238 19.9186 9.45751 19.9511C9.52265 19.9837 9.59429 20 9.67246 20C9.75062 20 9.82226 19.987 9.8874 19.9609C9.95253 19.9349 10.0112 19.8958 10.0633 19.8437C10.1284 19.7916 10.174 19.7297 10.2 19.658C10.2261 19.5864 10.2456 19.5115 10.2587 19.4333C10.2587 19.3421 10.2456 19.2607 10.2196 19.1891C10.1935 19.1174 10.1479 19.0556 10.0828 19.0034Z" fill="#888888"/>
</svg>
