<svg width="36" height="27" viewBox="0 0 36 27" fill="none" xmlns="http://www.w3.org/2000/svg">
<g clip-path="url(#clip0_45_3001)">
<path d="M12.744 25.8905C12.456 25.8905 12.174 25.8921 11.898 25.8954C11.622 25.8987 11.4 25.9026 11.232 25.9072L0.575998 26.202C0.191999 26.2124 0 26.2273 0 26.2467C0 26.266 0.191999 26.2809 0.575998 26.2914L11.232 26.6068C11.496 26.614 11.742 26.6192 11.97 26.6225C12.198 26.6257 12.456 26.6274 12.744 26.6274C13.44 26.6274 13.992 26.6218 14.4 26.6107C14.616 26.6048 14.796 26.5977 14.94 26.5896C15.084 26.5814 15.156 26.5733 15.156 26.5655C15.156 26.5465 14.904 26.5318 14.4 26.5213L5.25598 26.2462L14.4 25.9888C14.784 25.9783 14.976 25.9658 14.976 25.9514C14.976 25.9324 14.784 25.9177 14.4 25.9072C14.088 25.9007 13.812 25.8962 13.572 25.8939C13.332 25.8917 13.056 25.8905 12.744 25.8905Z" fill="#EEEEEE" fill-opacity="0.9"/>
</g>
<defs>
<clipPath id="clip0_45_3001">
<rect width="35.7821" height="1" fill="white" transform="matrix(1.00609 0 0 -1.00609 0 26.762)"/>
</clipPath>
</defs>
</svg>
