<svg width="20" height="20" viewBox="0 0 20 20" fill="none" xmlns="http://www.w3.org/2000/svg">
<mask id="mask0_45_3406" style="mask-type:luminance" maskUnits="userSpaceOnUse" x="0" y="0" width="19" height="20">
<path d="M18.5418 8.33301H10.0002V11.8747H14.9168C14.4585 14.1247 12.5418 15.4163 10.0002 15.4163C7.00016 15.4163 4.5835 12.9997 4.5835 9.99967C4.5835 6.99967 7.00016 4.58301 10.0002 4.58301C11.2918 4.58301 12.4585 5.04134 13.3752 5.79134L16.0418 3.12467C14.4168 1.70801 12.3335 0.833008 10.0002 0.833008C4.91683 0.833008 0.833496 4.91634 0.833496 9.99967C0.833496 15.083 4.91683 19.1663 10.0002 19.1663C14.5835 19.1663 18.7502 15.833 18.7502 9.99967C18.7502 9.45801 18.6668 8.87467 18.5418 8.33301Z" fill="white"/>
</mask>
<g mask="url(#mask0_45_3406)">
<path d="M0 15.4163V4.58301L7.08333 9.99967L0 15.4163Z" fill="#FBBC05"/>
</g>
<mask id="mask1_45_3406" style="mask-type:luminance" maskUnits="userSpaceOnUse" x="0" y="0" width="19" height="20">
<path d="M18.5418 8.33301H10.0002V11.8747H14.9168C14.4585 14.1247 12.5418 15.4163 10.0002 15.4163C7.00016 15.4163 4.5835 12.9997 4.5835 9.99967C4.5835 6.99967 7.00016 4.58301 10.0002 4.58301C11.2918 4.58301 12.4585 5.04134 13.3752 5.79134L16.0418 3.12467C14.4168 1.70801 12.3335 0.833008 10.0002 0.833008C4.91683 0.833008 0.833496 4.91634 0.833496 9.99967C0.833496 15.083 4.91683 19.1663 10.0002 19.1663C14.5835 19.1663 18.7502 15.833 18.7502 9.99967C18.7502 9.45801 18.6668 8.87467 18.5418 8.33301Z" fill="white"/>
</mask>
<g mask="url(#mask1_45_3406)">
<path d="M0 4.58333L7.08333 10L10 7.45833L20 5.83333V0H0V4.58333Z" fill="#EA4335"/>
</g>
<mask id="mask2_45_3406" style="mask-type:luminance" maskUnits="userSpaceOnUse" x="0" y="0" width="19" height="20">
<path d="M18.5418 8.33301H10.0002V11.8747H14.9168C14.4585 14.1247 12.5418 15.4163 10.0002 15.4163C7.00016 15.4163 4.5835 12.9997 4.5835 9.99967C4.5835 6.99967 7.00016 4.58301 10.0002 4.58301C11.2918 4.58301 12.4585 5.04134 13.3752 5.79134L16.0418 3.12467C14.4168 1.70801 12.3335 0.833008 10.0002 0.833008C4.91683 0.833008 0.833496 4.91634 0.833496 9.99967C0.833496 15.083 4.91683 19.1663 10.0002 19.1663C14.5835 19.1663 18.7502 15.833 18.7502 9.99967C18.7502 9.45801 18.6668 8.87467 18.5418 8.33301Z" fill="white"/>
</mask>
<g mask="url(#mask2_45_3406)">
<path d="M0 15.4167L12.5 5.83333L15.7917 6.25L20 0V20H0V15.4167Z" fill="#34A853"/>
</g>
<mask id="mask3_45_3406" style="mask-type:luminance" maskUnits="userSpaceOnUse" x="0" y="0" width="19" height="20">
<path d="M18.5418 8.33301H10.0002V11.8747H14.9168C14.4585 14.1247 12.5418 15.4163 10.0002 15.4163C7.00016 15.4163 4.5835 12.9997 4.5835 9.99967C4.5835 6.99967 7.00016 4.58301 10.0002 4.58301C11.2918 4.58301 12.4585 5.04134 13.3752 5.79134L16.0418 3.12467C14.4168 1.70801 12.3335 0.833008 10.0002 0.833008C4.91683 0.833008 0.833496 4.91634 0.833496 9.99967C0.833496 15.083 4.91683 19.1663 10.0002 19.1663C14.5835 19.1663 18.7502 15.833 18.7502 9.99967C18.7502 9.45801 18.6668 8.87467 18.5418 8.33301Z" fill="white"/>
</mask>
<g mask="url(#mask3_45_3406)">
<path d="M20.0003 19.9997L7.08366 9.99967L5.41699 8.74967L20.0003 4.58301V19.9997Z" fill="#4285F4"/>
</g>
</svg>
