<svg width="57" height="47" viewBox="0 0 57 47" fill="none" xmlns="http://www.w3.org/2000/svg">
<g clip-path="url(#clip0_45_3898)">
<g clip-path="url(#clip1_45_3898)">
<g clip-path="url(#clip2_45_3898)">
<path d="M26.1548 15.5006C24.5625 15.5006 23.0355 16.1331 21.9096 17.259C20.7837 18.3849 20.1511 19.912 20.1511 21.5043C20.1511 23.0965 20.7837 24.6236 21.9096 25.7495C23.0355 26.8754 24.5625 27.5079 26.1548 27.5079C27.7471 27.5079 29.2742 26.8754 30.4001 25.7495C31.526 24.6236 32.1585 23.0965 32.1585 21.5043C32.1585 19.912 31.526 18.3849 30.4001 17.259C29.2742 16.1331 27.7471 15.5006 26.1548 15.5006ZM18.1499 21.5043C18.1501 20.2303 18.4543 18.9749 19.0373 17.8422C19.6203 16.7094 20.4652 15.7322 21.5018 14.9917C22.5384 14.2512 23.7367 13.7688 24.9973 13.5846C26.2578 13.4004 27.5441 13.5197 28.7493 13.9326C29.9544 14.3455 31.0436 15.04 31.9264 15.9585C32.8091 16.877 33.4599 17.9929 33.8246 19.2135C34.1894 20.4341 34.2575 21.7241 34.0234 22.9764C33.7893 24.2286 33.2598 25.4069 32.4787 26.4133L37.869 31.8036C38.0513 31.9923 38.1521 32.2451 38.1499 32.5074C38.1476 32.7698 38.0423 33.0207 37.8568 33.2063C37.6713 33.3918 37.4203 33.497 37.158 33.4993C36.8956 33.5016 36.6429 33.4007 36.4541 33.2185L31.0638 27.8281C29.8806 28.7468 28.4633 29.315 26.9731 29.4681C25.4829 29.6213 23.9797 29.3532 22.6343 28.6943C21.2889 28.0355 20.1554 27.0124 19.3627 25.7413C18.5699 24.4703 18.1497 23.0023 18.1499 21.5043Z" fill="white"/>
</g>
</g>
</g>
<defs>
<clipPath id="clip0_45_3898">
<rect width="21" height="20" fill="white" transform="translate(17.8999 13.5)"/>
</clipPath>
<clipPath id="clip1_45_3898">
<rect width="21" height="20" fill="white" transform="translate(17.8999 13.5)"/>
</clipPath>
<clipPath id="clip2_45_3898">
<rect width="21" height="20" fill="white" transform="translate(17.8999 13.5)"/>
</clipPath>
</defs>
</svg>
