<svg width="26" height="19" viewBox="0 0 26 19" fill="none" xmlns="http://www.w3.org/2000/svg">
<g clip-path="url(#clip0_45_3911)">
<path d="M5.01294 18.1491H23.8712C24.0221 18.1491 24.152 18.1515 24.261 18.1562C24.3699 18.161 24.4076 18.1665 24.3741 18.1726L23.5695 18.4382C23.4857 18.4647 23.1965 18.487 22.702 18.5051C22.2075 18.5231 21.6334 18.5322 20.9796 18.5322H6.89877L7.09993 18.574C7.23403 18.5986 7.53995 18.619 8.0177 18.6353C8.49544 18.6517 9.04443 18.6598 9.66465 18.6598H21.7591C21.91 18.6598 22.0357 18.6619 22.1363 18.666C22.2368 18.6701 22.2871 18.6748 22.2871 18.6803C22.2871 18.6857 22.2368 18.6907 22.1363 18.6951C22.0357 18.6995 21.91 18.7017 21.7591 18.7017H9.66465C8.79298 18.7017 8.0177 18.6905 7.3388 18.668C6.6599 18.6455 6.23664 18.6169 6.06901 18.5822L3.52943 18.0633H0.813833C0.662966 18.0633 0.537244 18.0612 0.436667 18.0572C0.336089 18.0531 0.285801 18.048 0.285801 18.0418C0.285801 18.0357 0.336089 18.0308 0.436667 18.027C0.537244 18.0233 0.662966 18.0214 0.813833 18.0214H3.95688C4.07422 18.0214 4.17899 18.0229 4.27118 18.026C4.36338 18.0291 4.42624 18.033 4.45977 18.0378L5.01294 18.1491ZM19.6721 18.7446C20.1415 18.7446 20.5773 18.7494 20.9796 18.7589C21.3819 18.7685 21.7004 18.7814 21.9351 18.7978C22.1698 18.8141 22.2871 18.8318 22.2871 18.8509C22.2871 18.8699 22.1698 18.8876 21.9351 18.904C21.7004 18.9203 21.3819 18.9333 20.9796 18.9428C20.5773 18.9523 20.1415 18.9571 19.6721 18.9571C19.2028 18.9571 18.7669 18.9523 18.3646 18.9428C17.9623 18.9333 17.6438 18.9203 17.4091 18.904C17.1744 18.8876 17.0571 18.8698 17.0571 18.8504C17.0571 18.8309 17.1744 18.8132 17.4091 18.7972C17.6438 18.7812 17.9581 18.7685 18.352 18.7589C18.746 18.7494 19.186 18.7446 19.6721 18.7446ZM9.18691 18.7446C9.65627 18.7446 10.0921 18.7494 10.4944 18.7589C10.8967 18.7685 11.2152 18.7814 11.4499 18.7978C11.6846 18.8141 11.8019 18.8318 11.8019 18.8509C11.8019 18.8699 11.6846 18.8876 11.4499 18.904C11.2152 18.9203 10.8967 18.9333 10.4944 18.9428C10.0921 18.9523 9.65208 18.9571 9.17434 18.9571C8.6966 18.9571 8.26076 18.9523 7.86683 18.9428C7.4729 18.9333 7.1586 18.9205 6.92392 18.9045C6.68924 18.8885 6.5719 18.8708 6.5719 18.8514C6.5719 18.832 6.68924 18.8141 6.92392 18.7978C7.1586 18.7814 7.47709 18.7685 7.8794 18.7589C8.28171 18.7494 8.71755 18.7446 9.18691 18.7446Z" fill="white"/>
</g>
<defs>
<clipPath id="clip0_45_3911">
<rect width="25.1746" height="1" fill="white" transform="matrix(1.0215 0 0 -1.0215 0 19)"/>
</clipPath>
</defs>
</svg>
