<svg width="36" height="27" viewBox="0 0 36 27" fill="none" xmlns="http://www.w3.org/2000/svg">
<g clip-path="url(#clip0_45_3006)">
<path d="M14.688 26.2914C15.096 26.2802 15.3 26.2652 15.3 26.2462C15.3 26.2377 15.252 26.2298 15.156 26.2226C15.06 26.2154 14.904 26.2098 14.688 26.2059L4.03199 25.9111C3.79199 25.9046 3.54599 25.8995 3.29399 25.8959C3.04199 25.8923 2.73599 25.8905 2.37599 25.8905C1.77599 25.8905 1.284 25.8961 0.899997 25.9072C0.659998 25.9131 0.473999 25.92 0.341999 25.9278C0.209999 25.9357 0.144 25.9436 0.144 25.9514C0.144 25.9711 0.335999 25.9861 0.719998 25.9966L9.89997 26.2511L0.575998 26.5252C0.191999 26.5357 0 26.5507 0 26.5704C0 26.5861 0.239999 26.6012 0.719998 26.6156C1.2 26.6235 1.75199 26.6274 2.37599 26.6274C2.68799 26.6274 2.98799 26.6256 3.27599 26.622C3.56399 26.6184 3.81599 26.6133 4.03199 26.6068L14.688 26.2914Z" fill="#EEEEEE" fill-opacity="0.9"/>
</g>
<defs>
<clipPath id="clip0_45_3006">
<rect width="35.7821" height="1" fill="white" transform="matrix(1.00609 0 0 -1.00609 0 26.762)"/>
</clipPath>
</defs>
</svg>
