<svg width="284" height="17" viewBox="0 0 284 17" fill="none" xmlns="http://www.w3.org/2000/svg">
<g clip-path="url(#clip0_45_3353)">
<g clip-path="url(#clip1_45_3353)">
<path fill-rule="evenodd" clip-rule="evenodd" d="M7.48756 0.585462C7.60096 0.235542 7.92713 -0.000976562 8.29433 -0.000976562C8.66153 -0.000976562 8.98661 0.235542 9.10001 0.585462L10.5224 4.96808C10.5645 5.0966 10.6466 5.20892 10.7556 5.28884C10.8658 5.36876 10.9986 5.41197 11.1336 5.41197L15.742 5.4098C16.1092 5.4098 16.4343 5.64632 16.5477 5.99624C16.6611 6.34508 16.5369 6.72741 16.2399 6.94341L12.5117 9.65096C12.4016 9.73088 12.3195 9.84319 12.2774 9.97171C12.2352 10.1013 12.2363 10.2406 12.2774 10.3692L13.703 14.7507C13.8164 15.1007 13.6922 15.483 13.3952 15.699C13.0982 15.915 12.6953 15.915 12.3983 15.699L8.67233 12.9892C8.56217 12.9093 8.43041 12.8661 8.29433 12.8661C8.15825 12.8661 8.02648 12.9093 7.91632 12.9892L4.18926 15.699C3.89226 15.915 3.49047 15.915 3.19347 15.699C2.89539 15.483 2.77122 15.1007 2.8857 14.7507L4.31022 10.3692C4.35234 10.2406 4.35234 10.1013 4.31022 9.97171C4.26918 9.84319 4.18709 9.73088 4.07693 9.65096L0.348779 6.94341C0.0517791 6.72741 -0.0735124 6.34508 0.0398875 5.99624C0.154367 5.64632 0.479457 5.4098 0.846657 5.4098L5.45392 5.41197C5.59 5.41197 5.72285 5.36876 5.83193 5.28884C5.94209 5.20892 6.02417 5.0966 6.06521 4.96808L7.48756 0.585462Z" fill="#F6BB06"/>
</g>
</g>
<g clip-path="url(#clip2_45_3353)">
<g clip-path="url(#clip3_45_3353)">
<path fill-rule="evenodd" clip-rule="evenodd" d="M25.4876 0.585462C25.601 0.235542 25.9271 -0.000976562 26.2943 -0.000976562C26.6615 -0.000976562 26.9866 0.235542 27.1 0.585462L28.5224 4.96808C28.5645 5.0966 28.6466 5.20892 28.7556 5.28884C28.8658 5.36876 28.9986 5.41197 29.1336 5.41197L33.742 5.4098C34.1092 5.4098 34.4343 5.64632 34.5477 5.99624C34.6611 6.34508 34.5369 6.72741 34.2399 6.94341L30.5117 9.65096C30.4016 9.73088 30.3195 9.84319 30.2774 9.97171C30.2352 10.1013 30.2363 10.2406 30.2774 10.3692L31.703 14.7507C31.8164 15.1007 31.6922 15.483 31.3952 15.699C31.0982 15.915 30.6953 15.915 30.3983 15.699L26.6723 12.9892C26.5622 12.9093 26.4304 12.8661 26.2943 12.8661C26.1582 12.8661 26.0265 12.9093 25.9163 12.9892L22.1893 15.699C21.8923 15.915 21.4905 15.915 21.1935 15.699C20.8954 15.483 20.7712 15.1007 20.8857 14.7507L22.3102 10.3692C22.3523 10.2406 22.3523 10.1013 22.3102 9.97171C22.2692 9.84319 22.1871 9.73088 22.0769 9.65096L18.3488 6.94341C18.0518 6.72741 17.9265 6.34508 18.0399 5.99624C18.1544 5.64632 18.4795 5.4098 18.8467 5.4098L23.4539 5.41197C23.59 5.41197 23.7229 5.36876 23.8319 5.28884C23.9421 5.20892 24.0242 5.0966 24.0652 4.96808L25.4876 0.585462Z" fill="#F6BB06"/>
</g>
</g>
<g clip-path="url(#clip4_45_3353)">
<g clip-path="url(#clip5_45_3353)">
<path fill-rule="evenodd" clip-rule="evenodd" d="M43.4876 0.585462C43.601 0.235542 43.9271 -0.000976562 44.2943 -0.000976562C44.6615 -0.000976562 44.9866 0.235542 45.1 0.585462L46.5224 4.96808C46.5645 5.0966 46.6466 5.20892 46.7556 5.28884C46.8658 5.36876 46.9986 5.41197 47.1336 5.41197L51.742 5.4098C52.1092 5.4098 52.4343 5.64632 52.5477 5.99624C52.6611 6.34508 52.5369 6.72741 52.2399 6.94341L48.5117 9.65096C48.4016 9.73088 48.3195 9.84319 48.2774 9.97171C48.2352 10.1013 48.2363 10.2406 48.2774 10.3692L49.703 14.7507C49.8164 15.1007 49.6922 15.483 49.3952 15.699C49.0982 15.915 48.6953 15.915 48.3983 15.699L44.6723 12.9892C44.5622 12.9093 44.4304 12.8661 44.2943 12.8661C44.1582 12.8661 44.0265 12.9093 43.9163 12.9892L40.1893 15.699C39.8923 15.915 39.4905 15.915 39.1935 15.699C38.8954 15.483 38.7712 15.1007 38.8857 14.7507L40.3102 10.3692C40.3523 10.2406 40.3523 10.1013 40.3102 9.97171C40.2692 9.84319 40.1871 9.73088 40.0769 9.65096L36.3488 6.94341C36.0518 6.72741 35.9265 6.34508 36.0399 5.99624C36.1544 5.64632 36.4795 5.4098 36.8467 5.4098L41.4539 5.41197C41.59 5.41197 41.7229 5.36876 41.8319 5.28884C41.9421 5.20892 42.0242 5.0966 42.0652 4.96808L43.4876 0.585462Z" fill="#F6BB06"/>
</g>
</g>
<g clip-path="url(#clip6_45_3353)">
<g clip-path="url(#clip7_45_3353)">
<path fill-rule="evenodd" clip-rule="evenodd" d="M61.4876 0.585462C61.601 0.235542 61.9271 -0.000976562 62.2943 -0.000976562C62.6615 -0.000976562 62.9866 0.235542 63.1 0.585462L64.5224 4.96808C64.5645 5.0966 64.6466 5.20892 64.7556 5.28884C64.8658 5.36876 64.9986 5.41197 65.1336 5.41197L69.742 5.4098C70.1092 5.4098 70.4343 5.64632 70.5477 5.99624C70.6611 6.34508 70.5369 6.72741 70.2399 6.94341L66.5117 9.65096C66.4016 9.73088 66.3195 9.84319 66.2774 9.97171C66.2352 10.1013 66.2363 10.2406 66.2774 10.3692L67.703 14.7507C67.8164 15.1007 67.6922 15.483 67.3952 15.699C67.0982 15.915 66.6953 15.915 66.3983 15.699L62.6723 12.9892C62.5622 12.9093 62.4304 12.8661 62.2943 12.8661C62.1582 12.8661 62.0265 12.9093 61.9163 12.9892L58.1893 15.699C57.8923 15.915 57.4905 15.915 57.1935 15.699C56.8954 15.483 56.7712 15.1007 56.8857 14.7507L58.3102 10.3692C58.3523 10.2406 58.3523 10.1013 58.3102 9.97171C58.2692 9.84319 58.1871 9.73088 58.0769 9.65096L54.3488 6.94341C54.0518 6.72741 53.9265 6.34508 54.0399 5.99624C54.1544 5.64632 54.4795 5.4098 54.8467 5.4098L59.4539 5.41197C59.59 5.41197 59.7229 5.36876 59.8319 5.28884C59.9421 5.20892 60.0242 5.0966 60.0652 4.96808L61.4876 0.585462Z" fill="#F6BB06"/>
</g>
</g>
<g clip-path="url(#clip8_45_3353)">
<g clip-path="url(#clip9_45_3353)">
<path fill-rule="evenodd" clip-rule="evenodd" d="M79.4876 0.585462C79.601 0.235542 79.9271 -0.000976562 80.2943 -0.000976562C80.6615 -0.000976562 80.9866 0.235542 81.1 0.585462L82.5224 4.96808C82.5645 5.0966 82.6466 5.20892 82.7556 5.28884C82.8658 5.36876 82.9986 5.41197 83.1336 5.41197L87.742 5.4098C88.1092 5.4098 88.4343 5.64632 88.5477 5.99624C88.6611 6.34508 88.5369 6.72741 88.2399 6.94341L84.5117 9.65096C84.4016 9.73088 84.3195 9.84319 84.2774 9.97171C84.2352 10.1013 84.2363 10.2406 84.2774 10.3692L85.703 14.7507C85.8164 15.1007 85.6922 15.483 85.3952 15.699C85.0982 15.915 84.6953 15.915 84.3983 15.699L80.6723 12.9892C80.5622 12.9093 80.4304 12.8661 80.2943 12.8661C80.1582 12.8661 80.0265 12.9093 79.9163 12.9892L76.1893 15.699C75.8923 15.915 75.4905 15.915 75.1935 15.699C74.8954 15.483 74.7712 15.1007 74.8857 14.7507L76.3102 10.3692C76.3523 10.2406 76.3523 10.1013 76.3102 9.97171C76.2692 9.84319 76.1871 9.73088 76.0769 9.65096L72.3488 6.94341C72.0518 6.72741 71.9265 6.34508 72.0399 5.99624C72.1544 5.64632 72.4795 5.4098 72.8467 5.4098L77.4539 5.41197C77.59 5.41197 77.7229 5.36876 77.8319 5.28884C77.9421 5.20892 78.0242 5.0966 78.0652 4.96808L79.4876 0.585462Z" fill="#F6BB06"/>
</g>
</g>
<defs>
<clipPath id="clip0_45_3353">
<rect width="17" height="17" fill="white"/>
</clipPath>
<clipPath id="clip1_45_3353">
<rect width="17" height="15.9375" fill="white"/>
</clipPath>
<clipPath id="clip2_45_3353">
<rect width="17" height="17" fill="white" transform="translate(18)"/>
</clipPath>
<clipPath id="clip3_45_3353">
<rect width="17" height="15.9375" fill="white" transform="translate(18)"/>
</clipPath>
<clipPath id="clip4_45_3353">
<rect width="17" height="17" fill="white" transform="translate(36)"/>
</clipPath>
<clipPath id="clip5_45_3353">
<rect width="17" height="15.9375" fill="white" transform="translate(36)"/>
</clipPath>
<clipPath id="clip6_45_3353">
<rect width="17" height="17" fill="white" transform="translate(54)"/>
</clipPath>
<clipPath id="clip7_45_3353">
<rect width="17" height="15.9375" fill="white" transform="translate(54)"/>
</clipPath>
<clipPath id="clip8_45_3353">
<rect width="17" height="17" fill="white" transform="translate(72)"/>
</clipPath>
<clipPath id="clip9_45_3353">
<rect width="17" height="15.9375" fill="white" transform="translate(72)"/>
</clipPath>
</defs>
</svg>
