<svg width="11" height="20" viewBox="0 0 11 20" fill="none" xmlns="http://www.w3.org/2000/svg">
<path d="M9.92648 9.58501L0.977016 0.166581C0.872801 0.0623668 0.742532 0.00700131 0.586209 0.000488508C0.429887 -0.00602429 0.293105 0.0428265 0.175863 0.147041C0.123755 0.199149 0.081418 0.264283 0.0488508 0.342444C0.0162836 0.420605 0 0.498767 0 0.576928C0 0.642062 0.0130269 0.710453 0.0390806 0.782101C0.0651344 0.85375 0.104215 0.915626 0.156323 0.967734L8.71498 9.97582L0.156323 18.9839C0.104215 19.036 0.0651344 19.0979 0.0390806 19.1695C0.0130269 19.2412 0 19.3161 0 19.3943C0 19.4724 0.0130269 19.5473 0.0390806 19.619C0.0651344 19.6906 0.104215 19.759 0.156323 19.8241C0.20843 19.8762 0.270308 19.9186 0.341955 19.9511C0.413603 19.9837 0.488508 20 0.566669 20C0.618777 20 0.677398 19.987 0.742532 19.9609C0.807666 19.9349 0.872801 19.8958 0.937935 19.8437L0.957475 19.8241L9.92648 10.3666C10.0307 10.2624 10.0828 10.1354 10.0828 9.98559C10.0828 9.83578 10.0307 9.70225 9.92648 9.58501Z" fill="#888888"/>
</svg>
