<svg width="284" height="17" viewBox="0 0 284 17" fill="none" xmlns="http://www.w3.org/2000/svg">
<g clip-path="url(#clip0_45_3614)">
<g clip-path="url(#clip1_45_3614)">
<path fill-rule="evenodd" clip-rule="evenodd" d="M7.48853 0.585462C7.60193 0.235542 7.9281 -0.000976562 8.2953 -0.000976562C8.6625 -0.000976562 8.98759 0.235542 9.10099 0.585462L10.5233 4.96808C10.5655 5.0966 10.6475 5.20892 10.7566 5.28884C10.8668 5.36876 10.9996 5.41197 11.1346 5.41197L15.743 5.4098C16.1102 5.4098 16.4353 5.64632 16.5487 5.99624C16.6621 6.34508 16.5379 6.72741 16.2409 6.94341L12.5127 9.65096C12.4025 9.73088 12.3204 9.84319 12.2783 9.97171C12.2362 10.1013 12.2373 10.2406 12.2783 10.3692L13.7039 14.7507C13.8173 15.1007 13.6931 15.483 13.3961 15.699C13.0991 15.915 12.6963 15.915 12.3993 15.699L8.67331 12.9892C8.56315 12.9093 8.43138 12.8661 8.2953 12.8661C8.15922 12.8661 8.02746 12.9093 7.9173 12.9892L4.19023 15.699C3.89323 15.915 3.49144 15.915 3.19444 15.699C2.89636 15.483 2.77219 15.1007 2.88667 14.7507L4.31119 10.3692C4.35331 10.2406 4.35331 10.1013 4.31119 9.97171C4.27015 9.84319 4.18807 9.73088 4.07791 9.65096L0.349755 6.94341C0.0527557 6.72741 -0.0725358 6.34508 0.0408641 5.99624C0.155344 5.64632 0.480434 5.4098 0.847634 5.4098L5.4549 5.41197C5.59098 5.41197 5.72383 5.36876 5.83291 5.28884C5.94307 5.20892 6.02515 5.0966 6.06619 4.96808L7.48853 0.585462Z" fill="#3578F2"/>
</g>
</g>
<g clip-path="url(#clip2_45_3614)">
<g clip-path="url(#clip3_45_3614)">
<path fill-rule="evenodd" clip-rule="evenodd" d="M25.4885 0.585462C25.6019 0.235542 25.9281 -0.000976562 26.2953 -0.000976562C26.6625 -0.000976562 26.9876 0.235542 27.101 0.585462L28.5233 4.96808C28.5655 5.0966 28.6475 5.20892 28.7566 5.28884C28.8668 5.36876 28.9996 5.41197 29.1346 5.41197L33.743 5.4098C34.1102 5.4098 34.4353 5.64632 34.5487 5.99624C34.6621 6.34508 34.5379 6.72741 34.2409 6.94341L30.5127 9.65096C30.4025 9.73088 30.3204 9.84319 30.2783 9.97171C30.2362 10.1013 30.2373 10.2406 30.2783 10.3692L31.7039 14.7507C31.8173 15.1007 31.6931 15.483 31.3961 15.699C31.0991 15.915 30.6963 15.915 30.3993 15.699L26.6733 12.9892C26.5632 12.9093 26.4314 12.8661 26.2953 12.8661C26.1592 12.8661 26.0275 12.9093 25.9173 12.9892L22.1902 15.699C21.8932 15.915 21.4914 15.915 21.1944 15.699C20.8964 15.483 20.7722 15.1007 20.8867 14.7507L22.3112 10.3692C22.3533 10.2406 22.3533 10.1013 22.3112 9.97171C22.2702 9.84319 22.1881 9.73088 22.0779 9.65096L18.3498 6.94341C18.0528 6.72741 17.9275 6.34508 18.0409 5.99624C18.1553 5.64632 18.4804 5.4098 18.8476 5.4098L23.4549 5.41197C23.591 5.41197 23.7238 5.36876 23.8329 5.28884C23.9431 5.20892 24.0252 5.0966 24.0662 4.96808L25.4885 0.585462Z" fill="#3578F2"/>
</g>
</g>
<g clip-path="url(#clip4_45_3614)">
<g clip-path="url(#clip5_45_3614)">
<path fill-rule="evenodd" clip-rule="evenodd" d="M43.4885 0.585462C43.6019 0.235542 43.9281 -0.000976562 44.2953 -0.000976562C44.6625 -0.000976562 44.9876 0.235542 45.101 0.585462L46.5233 4.96808C46.5655 5.0966 46.6475 5.20892 46.7566 5.28884C46.8668 5.36876 46.9996 5.41197 47.1346 5.41197L51.743 5.4098C52.1102 5.4098 52.4353 5.64632 52.5487 5.99624C52.6621 6.34508 52.5379 6.72741 52.2409 6.94341L48.5127 9.65096C48.4025 9.73088 48.3204 9.84319 48.2783 9.97171C48.2362 10.1013 48.2373 10.2406 48.2783 10.3692L49.7039 14.7507C49.8173 15.1007 49.6931 15.483 49.3961 15.699C49.0991 15.915 48.6963 15.915 48.3993 15.699L44.6733 12.9892C44.5632 12.9093 44.4314 12.8661 44.2953 12.8661C44.1592 12.8661 44.0275 12.9093 43.9173 12.9892L40.1902 15.699C39.8932 15.915 39.4914 15.915 39.1944 15.699C38.8964 15.483 38.7722 15.1007 38.8867 14.7507L40.3112 10.3692C40.3533 10.2406 40.3533 10.1013 40.3112 9.97171C40.2702 9.84319 40.1881 9.73088 40.0779 9.65096L36.3498 6.94341C36.0528 6.72741 35.9275 6.34508 36.0409 5.99624C36.1553 5.64632 36.4804 5.4098 36.8476 5.4098L41.4549 5.41197C41.591 5.41197 41.7238 5.36876 41.8329 5.28884C41.9431 5.20892 42.0252 5.0966 42.0662 4.96808L43.4885 0.585462Z" fill="#3578F2"/>
</g>
</g>
<g clip-path="url(#clip6_45_3614)">
<g clip-path="url(#clip7_45_3614)">
<path fill-rule="evenodd" clip-rule="evenodd" d="M61.4885 0.585462C61.6019 0.235542 61.9281 -0.000976562 62.2953 -0.000976562C62.6625 -0.000976562 62.9876 0.235542 63.101 0.585462L64.5233 4.96808C64.5655 5.0966 64.6475 5.20892 64.7566 5.28884C64.8668 5.36876 64.9996 5.41197 65.1346 5.41197L69.743 5.4098C70.1102 5.4098 70.4353 5.64632 70.5487 5.99624C70.6621 6.34508 70.5379 6.72741 70.2409 6.94341L66.5127 9.65096C66.4025 9.73088 66.3204 9.84319 66.2783 9.97171C66.2362 10.1013 66.2373 10.2406 66.2783 10.3692L67.7039 14.7507C67.8173 15.1007 67.6931 15.483 67.3961 15.699C67.0991 15.915 66.6963 15.915 66.3993 15.699L62.6733 12.9892C62.5632 12.9093 62.4314 12.8661 62.2953 12.8661C62.1592 12.8661 62.0275 12.9093 61.9173 12.9892L58.1902 15.699C57.8932 15.915 57.4914 15.915 57.1944 15.699C56.8964 15.483 56.7722 15.1007 56.8867 14.7507L58.3112 10.3692C58.3533 10.2406 58.3533 10.1013 58.3112 9.97171C58.2702 9.84319 58.1881 9.73088 58.0779 9.65096L54.3498 6.94341C54.0528 6.72741 53.9275 6.34508 54.0409 5.99624C54.1553 5.64632 54.4804 5.4098 54.8476 5.4098L59.4549 5.41197C59.591 5.41197 59.7238 5.36876 59.8329 5.28884C59.9431 5.20892 60.0252 5.0966 60.0662 4.96808L61.4885 0.585462Z" fill="#3578F2"/>
</g>
</g>
<g clip-path="url(#clip8_45_3614)">
<g clip-path="url(#clip9_45_3614)">
<path fill-rule="evenodd" clip-rule="evenodd" d="M79.4885 0.585462C79.6019 0.235542 79.9281 -0.000976562 80.2953 -0.000976562C80.6625 -0.000976562 80.9876 0.235542 81.101 0.585462L82.5233 4.96808C82.5655 5.0966 82.6475 5.20892 82.7566 5.28884C82.8668 5.36876 82.9996 5.41197 83.1346 5.41197L87.743 5.4098C88.1102 5.4098 88.4353 5.64632 88.5487 5.99624C88.6621 6.34508 88.5379 6.72741 88.2409 6.94341L84.5127 9.65096C84.4025 9.73088 84.3204 9.84319 84.2783 9.97171C84.2362 10.1013 84.2373 10.2406 84.2783 10.3692L85.7039 14.7507C85.8173 15.1007 85.6931 15.483 85.3961 15.699C85.0991 15.915 84.6963 15.915 84.3993 15.699L80.6733 12.9892C80.5632 12.9093 80.4314 12.8661 80.2953 12.8661C80.1592 12.8661 80.0275 12.9093 79.9173 12.9892L76.1902 15.699C75.8932 15.915 75.4914 15.915 75.1944 15.699C74.8964 15.483 74.7722 15.1007 74.8867 14.7507L76.3112 10.3692C76.3533 10.2406 76.3533 10.1013 76.3112 9.97171C76.2702 9.84319 76.1881 9.73088 76.0779 9.65096L72.3498 6.94341C72.0528 6.72741 71.9275 6.34508 72.0409 5.99624C72.1553 5.64632 72.4804 5.4098 72.8476 5.4098L77.4549 5.41197C77.591 5.41197 77.7238 5.36876 77.8329 5.28884C77.9431 5.20892 78.0252 5.0966 78.0662 4.96808L79.4885 0.585462Z" fill="#3578F2"/>
</g>
</g>
<defs>
<clipPath id="clip0_45_3614">
<rect width="17" height="17" fill="white"/>
</clipPath>
<clipPath id="clip1_45_3614">
<rect width="17" height="15.9375" fill="white"/>
</clipPath>
<clipPath id="clip2_45_3614">
<rect width="17" height="17" fill="white" transform="translate(18)"/>
</clipPath>
<clipPath id="clip3_45_3614">
<rect width="17" height="15.9375" fill="white" transform="translate(18)"/>
</clipPath>
<clipPath id="clip4_45_3614">
<rect width="17" height="17" fill="white" transform="translate(36)"/>
</clipPath>
<clipPath id="clip5_45_3614">
<rect width="17" height="15.9375" fill="white" transform="translate(36)"/>
</clipPath>
<clipPath id="clip6_45_3614">
<rect width="17" height="17" fill="white" transform="translate(54)"/>
</clipPath>
<clipPath id="clip7_45_3614">
<rect width="17" height="15.9375" fill="white" transform="translate(54)"/>
</clipPath>
<clipPath id="clip8_45_3614">
<rect width="17" height="17" fill="white" transform="translate(72)"/>
</clipPath>
<clipPath id="clip9_45_3614">
<rect width="17" height="15.9375" fill="white" transform="translate(72)"/>
</clipPath>
</defs>
</svg>
